<svg style="background:#1a1f17" xmlns="http://www.w3.org/2000/svg" viewBox="0 0 976 300" width="976" height="300" role="img" aria-label="Triangle weights for step 52" font-family="-apple-system, 'Segoe UI', Helvetica, Arial, sans-serif" color="#e6edf3">
<defs><clipPath id="tw-axis"><rect x="200" y="0" width="732" height="300"/></clipPath></defs>
<g transform="translate(12, 12)">
<text fill="currentColor" x="200" y="14" font-size="14.5" font-weight="600">The triangle of step 52 and the bins under it</text>
<text fill="#3fb5a8" x="186" y="148" text-anchor="end" font-size="14.5" font-weight="600">SwiftF0 steps r</text>
<text fill="currentColor" x="186" y="165" text-anchor="end" font-size="14.5" fill-opacity="0.55">weight 0 to 1</text>
<text fill="currentColor" x="194" y="44" text-anchor="end" font-size="14.5" fill-opacity="0.7">1</text>
<polyline points="182.2,150.0 376.4,40.0 578.5,150.0" fill="none" stroke="#3fb5a8" stroke-opacity="0.35" stroke-width="1" clip-path="url(#tw-axis)"/>
<polyline points="578.5,150.0 789.0,40.0 1008.2,150.0" fill="none" stroke="#3fb5a8" stroke-opacity="0.35" stroke-width="1" clip-path="url(#tw-axis)"/>
<polyline points="376.4,150.0 578.5,40.0 789.0,150.0" fill="none" stroke="#3fb5a8" stroke-opacity="1" stroke-width="1.5" clip-path="url(#tw-axis)"/>
<path d="M200 150 H932" stroke="currentColor" stroke-opacity="0.35" stroke-width="1.5" fill="none"/>
<path d="M376.4 142 V158" stroke="#3fb5a8" stroke-width="1.5"/>
<text fill="#3fb5a8" x="376.4" y="173" text-anchor="middle" font-size="14.5">r = 51</text>
<text fill="currentColor" x="376.4" y="187" text-anchor="middle" font-size="14.5" fill-opacity="0.5">368.3</text>
<path d="M578.5 142 V158" stroke="#3fb5a8" stroke-width="1.5"/>
<text fill="#3fb5a8" x="578.5" y="173" text-anchor="middle" font-size="14.5">r = 52</text>
<text fill="currentColor" x="578.5" y="187" text-anchor="middle" font-size="14.5" fill-opacity="0.5">383.4</text>
<path d="M789.0 142 V158" stroke="#3fb5a8" stroke-width="1.5"/>
<text fill="#3fb5a8" x="789.0" y="173" text-anchor="middle" font-size="14.5">r = 53</text>
<text fill="currentColor" x="789.0" y="187" text-anchor="middle" font-size="14.5" fill-opacity="0.5">399.3</text>
<text fill="currentColor" x="186" y="234" text-anchor="end" font-size="14.5" font-weight="600" fill-opacity="0.7">STFT bins b</text>
<text fill="currentColor" x="186" y="251" text-anchor="end" font-size="14.5" fill-opacity="0.55">f<tspan dy="3" font-size="11.5">b</tspan><tspan dy="-3"> = b · 15.625 Hz</tspan></text>
<path d="M200 236 H932" stroke="currentColor" stroke-opacity="0.35" stroke-width="1.5" fill="none"/>
<path d="M258.2 228 V244" stroke="currentColor" stroke-width="1.5"/>
<text fill="currentColor" x="258.2" y="259" text-anchor="middle" font-size="14.5" fill-opacity="0.8">b = 23</text>
<text fill="currentColor" x="258.2" y="273" text-anchor="middle" font-size="14.5" fill-opacity="0.5">359.375</text>
<path d="M466.2 228 V244" stroke="currentColor" stroke-width="1.5"/>
<text fill="currentColor" x="466.2" y="259" text-anchor="middle" font-size="14.5" fill-opacity="0.8">b = 24</text>
<text fill="currentColor" x="466.2" y="273" text-anchor="middle" font-size="14.5" fill-opacity="0.5">375</text>
<path d="M466.2 228 V101.1" stroke="currentColor" stroke-opacity="0.6" stroke-width="1" stroke-dasharray="2 3"/>
<circle cx="466.2" cy="101.1" r="3.5" fill="#3fb5a8"/>
<text fill="currentColor" x="473.2" y="95.1" font-size="14.5">0.44</text>
<path d="M674.1 228 V244" stroke="currentColor" stroke-width="1.5"/>
<text fill="currentColor" x="674.1" y="259" text-anchor="middle" font-size="14.5" fill-opacity="0.8">b = 25</text>
<text fill="currentColor" x="674.1" y="273" text-anchor="middle" font-size="14.5" fill-opacity="0.5">390.625</text>
<path d="M674.1 228 V90.0" stroke="currentColor" stroke-opacity="0.6" stroke-width="1" stroke-dasharray="2 3"/>
<circle cx="674.1" cy="90.0" r="3.5" fill="#3fb5a8"/>
<text fill="currentColor" x="681.1" y="84.0" font-size="14.5">0.55</text>
</g>
</svg>
